<?xml version="1.0" standalone="no"?>
<!DOCTYPE svg PUBLIC "-//W3C//DTD SVG 20010904//EN"
 "http://www.w3.org/TR/2001/REC-SVG-20010904/DTD/svg10.dtd">
<svg version="1.0" xmlns="http://www.w3.org/2000/svg"
 width="300.000000pt" height="300.000000pt" viewBox="0 0 300.000000 300.000000"
 preserveAspectRatio="xMidYMid meet">
<metadata>
Created by potrace 1.10, written by Peter Selinger 2001-2011
</metadata>
<g transform="translate(0.000000,300.000000) scale(0.100000,-0.100000)"
fill="#000000" stroke="none">
<path d="M1562 2279 c-255 -33 -447 -194 -507 -426 -8 -32 -18 -65 -21 -75 -6
-20 -24 -25 -24 -7 0 14 -23 69 -63 148 -54 108 -156 161 -311 161 l-79 0 24
-26 c13 -14 44 -64 69 -112 59 -113 98 -142 200 -150 l71 -5 -13 29 c-21 50
-77 128 -105 149 l-27 19 22 -31 c12 -17 22 -36 22 -42 0 -6 3 -11 8 -11 4 0
13 -12 20 -27 10 -22 10 -30 -2 -41 -9 -9 -19 -11 -28 -6 -7 5 -15 9 -18 9 -3
0 -20 6 -38 14 -26 11 -40 29 -69 90 -20 42 -40 78 -45 79 -4 2 -8 10 -8 18 0
30 138 2 168 -35 10 -11 11 -12 6 -1 -7 13 -5 13 9 1 18 -15 23 -26 7 -16 -24
15 -6 -11 37 -54 25 -25 60 -75 77 -111 34 -72 37 -120 20 -285 -12 -123 -1
-224 36 -328 196 -541 901 -668 1270 -230 61 72 105 152 137 248 34 104 38
271 9 383 -18 71 -43 115 -28 50 4 -18 7 -82 6 -143 -1 -89 -6 -125 -26 -187
-73 -221 -233 -385 -444 -454 -78 -25 -103 -29 -204 -29 -90 1 -130 5 -185 23
-299 94 -493 377 -471 685 13 193 116 388 265 503 62 48 74 70 26 47 -19 -9
-35 -20 -35 -25 0 -4 -8 -8 -18 -8 -18 0 -72 -54 -72 -73 0 -6 -3 -8 -6 -4 -9
8 -55 -49 -95 -119 -34 -56 -47 -89 -79 -189 -16 -49 -27 -204 -19 -265 8 -58
31 -143 42 -151 4 -3 7 -10 6 -15 -3 -13 29 -81 41 -89 6 -4 8 -11 5 -16 -4
-5 -2 -9 3 -9 5 0 14 -11 19 -23 19 -42 123 -146 192 -191 119 -79 220 -111
367 -115 202 -5 380 69 527 222 31 32 52 46 58 40 6 -6 1 -19 -13 -36 -13 -15
-38 -45 -57 -67 -19 -22 -40 -40 -48 -40 -7 0 -13 -6 -13 -12 -1 -15 -125 -96
-178 -116 -70 -26 -138 -42 -226 -53 -80 -10 -99 -9 -185 11 -106 25 -189 59
-272 112 -57 37 -150 124 -141 133 3 3 1 5 -5 5 -11 0 -77 103 -87 138 -4 12
-11 22 -15 22 -5 0 -14 21 -21 48 -6 26 -16 56 -22 68 -12 26 -15 242 -4 304
4 25 8 71 9 103 0 31 4 52 8 45 6 -9 10 -8 15 5 3 9 10 15 14 12 8 -5 41 79
47 120 4 30 21 61 76 145 93 143 269 230 465 230 l93 0 -16 -30 c-8 -16 -15
-33 -14 -36 0 -4 -4 -10 -9 -13 -11 -7 -72 -138 -72 -155 0 -7 -9 -23 -20 -36
-11 -12 -17 -27 -14 -31 3 -5 0 -9 -5 -9 -6 0 -11 -6 -11 -13 0 -7 -20 -36
-45 -64 -58 -65 -124 -95 -227 -101 -87 -5 -88 -4 -62 56 34 78 40 89 76 138
21 28 38 56 38 62 0 7 7 12 15 12 8 0 15 5 15 11 0 5 6 7 13 3 6 -4 9 -4 5 1
-4 4 -3 14 4 22 6 7 8 16 4 20 -10 10 -102 -84 -142 -145 -28 -42 -94 -194
-94 -217 0 -9 96 -4 171 9 88 16 145 43 194 92 47 47 72 89 124 209 46 105 75
155 123 218 l30 37 -94 -1 c-51 -1 -122 -5 -156 -10z"/>
<path d="M1891 2163 c7 -10 19 -23 27 -30 11 -9 10 -13 -7 -23 -26 -14 -27
-32 -1 -55 11 -10 20 -26 20 -36 0 -10 5 -21 10 -24 6 -3 10 3 10 14 0 11 12
32 27 46 22 20 34 24 59 19 19 -3 35 -1 39 5 4 7 -28 28 -88 56 -105 50 -115
53 -96 28z"/>
<path d="M1727 2105 c-29 -59 -25 -65 34 -65 19 0 29 5 29 15 0 9 12 20 28 26
26 11 26 11 6 19 -12 5 -24 15 -27 24 -3 8 -14 19 -25 25 -16 8 -22 3 -45 -44z"/>
<path d="M1660 1954 c-80 -182 -216 -264 -437 -264 l-86 0 6 38 5 37 -16 -35
c-23 -52 -20 -137 7 -163 18 -18 21 -19 21 -4 0 9 -9 31 -20 49 -23 39 -25 48
-7 48 15 0 61 -96 59 -122 -2 -25 62 -70 92 -62 19 4 28 0 41 -20 10 -14 24
-26 33 -26 8 0 30 -17 48 -37 26 -31 35 -36 45 -25 36 34 46 -20 13 -64 -23
-30 -24 -37 -16 -84 6 -34 17 -56 31 -66 11 -8 21 -24 21 -34 0 -34 12 -51 48
-65 l35 -15 -6 -74 -7 -74 77 -8 c42 -3 97 -3 122 2 45 9 46 10 49 49 3 35 8
44 42 65 35 22 40 29 40 63 0 43 24 107 39 107 19 0 12 22 -15 46 -14 13 -33
24 -43 24 -30 0 -112 40 -109 53 5 23 -22 55 -52 62 -17 4 -44 18 -60 32 -23
19 -36 23 -60 18 -22 -5 -32 -3 -36 9 -9 22 -41 20 -54 -4 -15 -28 -75 -28
-90 0 -6 12 -8 29 -5 40 4 13 0 20 -15 25 -22 7 -26 26 -10 56 15 28 -11 25
-39 -5 -14 -15 -30 -22 -44 -19 -20 4 -23 11 -24 54 -1 45 2 51 28 64 15 8 39
15 53 15 14 0 27 4 30 8 2 4 17 7 33 6 24 -1 29 -6 34 -37 8 -51 19 -58 19
-13 0 44 14 73 47 99 12 10 23 24 23 30 0 19 51 66 66 60 9 -3 14 2 14 16 0
11 9 25 20 31 17 9 20 8 20 -10 0 -24 13 -26 30 -5 7 8 19 15 26 15 21 0 17
18 -6 25 -29 9 -25 19 13 33 44 16 46 15 40 -9 -6 -21 10 -39 35 -39 15 0 16
32 0 48 -8 8 -8 15 0 25 9 11 5 18 -19 36 -22 17 -28 27 -24 43 6 17 4 18 -13
9 -15 -8 -23 -7 -32 4 -7 8 -16 15 -19 15 -4 0 -22 -34 -41 -76z m84 3 c3 3 6
0 6 -8 0 -8 -11 -19 -25 -25 -21 -10 -25 -9 -30 7 -9 27 2 41 24 29 10 -5 21
-6 25 -3z m-464 -300 c0 -2 -8 -19 -17 -38 -10 -19 -16 -44 -14 -56 4 -39 -17
-25 -39 23 -28 65 -27 71 25 72 25 1 45 1 45 -1z m372 -308 c14 -11 32 -19 40
-19 17 -1 48 -24 48 -37 0 -14 54 -60 81 -68 13 -4 37 -14 52 -22 23 -12 26
-17 16 -29 -6 -8 -9 -17 -6 -21 4 -3 3 -11 -2 -17 -5 -6 -11 -25 -14 -43 -6
-37 -15 -54 -38 -70 -20 -15 -52 -80 -44 -92 3 -5 -29 -12 -70 -16 -85 -8
-110 2 -102 42 9 48 -12 107 -43 125 -17 9 -35 29 -40 43 -5 14 -19 38 -31 54
-17 24 -21 38 -16 73 3 23 12 47 19 53 8 5 12 18 10 28 -8 40 5 49 61 42 28
-4 64 -16 79 -26z"/>
<path d="M2237 1820 c9 -9 9 -17 0 -31 -9 -14 -8 -22 6 -37 22 -25 22 -54 -2
-69 -12 -8 -17 -19 -14 -32 3 -13 -1 -21 -15 -25 -20 -7 -55 -66 -57 -96 0 -8
-4 -33 -9 -54 -7 -30 -6 -42 6 -50 8 -6 21 -24 29 -40 24 -50 57 -67 109 -58
44 7 45 9 58 57 22 86 17 295 -8 335 -7 11 -11 11 -24 1 -9 -7 -24 -10 -33 -6
-17 6 -16 7 2 17 35 19 45 37 33 64 -6 13 -18 24 -27 24 -9 0 -27 3 -41 6 -20
5 -23 4 -13 -6z m87 -172 c9 -50 9 -167 1 -221 -11 -74 -61 -90 -106 -34 -50
62 -49 111 6 199 60 97 88 113 99 56z"/>
<path d="M1427 1553 c-13 -13 -7 -24 11 -19 10 4 27 -1 38 -9 10 -8 29 -15 42
-15 13 0 21 -4 18 -9 -3 -5 2 -15 11 -22 10 -9 18 -10 20 -4 2 6 19 9 38 7 19
-2 35 0 35 4 0 13 -58 37 -75 30 -8 -3 -18 0 -22 7 -15 23 -101 46 -116 30z"/>
</g>
</svg>
